<svg xmlns="http://www.w3.org/2000/svg" width="20.003" height="20.003" viewBox="0 0 20.003 20.003">
  <path id="Forma_1" data-name="Forma 1" d="M1360.66,3754.979a9.953,9.953,0,0,0-3.64-3.639,10.062,10.062,0,0,0-10.04,0,9.952,9.952,0,0,0-3.64,3.639,10.066,10.066,0,0,0,0,10.04,9.962,9.962,0,0,0,3.64,3.64,10.066,10.066,0,0,0,10.041,0,9.958,9.958,0,0,0,3.64-3.64,10.067,10.067,0,0,0,0-10.04Zm-2.162,4.356-5.912,5.913a.82.82,0,0,1-1.172,0l-5.912-5.913a.817.817,0,0,1,0-1.172l1.328-1.328a.818.818,0,0,1,1.172,0l4,4,4-4a.818.818,0,0,1,1.172,0l1.328,1.328a.817.817,0,0,1,0,1.172Z" transform="translate(-1341.999 -3749.998)" fill="#4b5a69"/>
</svg>
